<svg viewBox="0 0 1200 720" xmlns="http://www.w3.org/2000/svg" font-family="'Courier New', monospace">
  <defs>
    <linearGradient id="bg2" x1="0" y1="0" x2="1" y2="1">
      <stop offset="0%" stop-color="#0a0e1a"/>
      <stop offset="100%" stop-color="#0d1528"/>
    </linearGradient>
    <linearGradient id="accentLine2" x1="0" y1="0" x2="1" y2="0">
      <stop offset="0%" stop-color="#3b82f6"/>
      <stop offset="100%" stop-color="#a78bfa"/>
    </linearGradient>
    <linearGradient id="barGreen" x1="0" y1="0" x2="1" y2="0">
      <stop offset="0%" stop-color="#22c55e"/>
      <stop offset="100%" stop-color="#16a34a"/>
    </linearGradient>
    <linearGradient id="barBlue" x1="0" y1="0" x2="1" y2="0">
      <stop offset="0%" stop-color="#3b82f6"/>
      <stop offset="100%" stop-color="#6366f1"/>
    </linearGradient>
    <linearGradient id="barAmber" x1="0" y1="0" x2="1" y2="0">
      <stop offset="0%" stop-color="#f59e0b"/>
      <stop offset="100%" stop-color="#d97706"/>
    </linearGradient>
    <pattern id="dots2" x="0" y="0" width="24" height="24" patternUnits="userSpaceOnUse">
      <circle cx="12" cy="12" r="1" fill="#fff"/>
    </pattern>
  </defs>

  <rect width="1200" height="720" fill="url(#bg2)"/>
  <rect width="1200" height="720" fill="url(#dots2)" opacity="0.04"/>
  <rect x="0" y="0" width="1200" height="3" fill="url(#accentLine2)"/>

  <!-- Nav -->
  <rect x="0" y="3" width="1200" height="52" fill="#0d1528" opacity="0.95"/>
  <rect x="0" y="54" width="1200" height="1" fill="#1e2d4a"/>
  <rect x="24" y="17" width="8" height="24" rx="2" fill="#3b82f6"/>
  <rect x="36" y="17" width="8" height="24" rx="2" fill="#6366f1"/>
  <rect x="30" y="23" width="20" height="4" rx="2" fill="#a78bfa"/>
  <text x="58" y="36" fill="#e2e8f0" font-size="15" font-weight="700" letter-spacing="1">TESTFORGE</text>
  <text x="148" y="36" fill="#3b82f6" font-size="11">CLOUD</text>
  <text x="750" y="36" fill="#64748b" font-size="12">Generator</text>
  <text x="840" y="36" fill="#60a5fa" font-size="12" font-weight="600">Coverage</text>
  <rect x="840" y="51" width="70" height="2" rx="1" fill="#3b82f6"/>
  <text x="940" y="36" fill="#64748b" font-size="12">Docs</text>

  <!-- Page title -->
  <text x="60" y="100" fill="#e2e8f0" font-size="22" font-weight="700" letter-spacing="0.5">Coverage Report</text>
  <text x="60" y="122" fill="#64748b" font-size="12">Generated by pytest-cov  ·  TestForge Cloud  ·  core/ package</text>

  <!-- Run button -->
  <rect x="1040" y="80" width="120" height="36" rx="6" fill="#0d1117" stroke="#1e2d4a" stroke-width="1"/>
  <text x="1100" y="103" fill="#60a5fa" font-size="12" text-anchor="middle">Run Report</text>

  <!-- Big stat cards -->
  <rect x="60" y="140" width="220" height="100" rx="8" fill="#141c2e" stroke="#1e2d4a" stroke-width="1"/>
  <text x="80" y="168" fill="#64748b" font-size="11">OVERALL COVERAGE</text>
  <text x="80" y="212" fill="#22c55e" font-size="42" font-weight="700">94%</text>

  <rect x="300" y="140" width="180" height="100" rx="8" fill="#141c2e" stroke="#1e2d4a" stroke-width="1"/>
  <text x="320" y="168" fill="#64748b" font-size="11">STATEMENTS</text>
  <text x="320" y="204" fill="#e2e8f0" font-size="30" font-weight="700">87</text>
  <text x="320" y="224" fill="#64748b" font-size="11">covered / 93 total</text>

  <rect x="500" y="140" width="180" height="100" rx="8" fill="#141c2e" stroke="#1e2d4a" stroke-width="1"/>
  <text x="520" y="168" fill="#64748b" font-size="11">BRANCHES</text>
  <text x="520" y="204" fill="#e2e8f0" font-size="30" font-weight="700">42</text>
  <text x="520" y="224" fill="#64748b" font-size="11">covered / 44 total</text>

  <rect x="700" y="140" width="180" height="100" rx="8" fill="#141c2e" stroke="#1e2d4a" stroke-width="1"/>
  <text x="720" y="168" fill="#64748b" font-size="11">TESTS RUN</text>
  <text x="720" y="204" fill="#60a5fa" font-size="30" font-weight="700">24</text>
  <text x="720" y="224" fill="#22c55e" font-size="11">All passed</text>

  <rect x="900" y="140" width="180" height="100" rx="8" fill="#141c2e" stroke="#1e2d4a" stroke-width="1"/>
  <text x="920" y="168" fill="#64748b" font-size="11">MISSING LINES</text>
  <text x="920" y="204" fill="#f59e0b" font-size="30" font-weight="700">6</text>
  <text x="920" y="224" fill="#64748b" font-size="11">across 2 modules</text>

  <!-- Module table -->
  <rect x="60" y="258" width="1080" height="380" rx="8" fill="#141c2e" stroke="#1e2d4a" stroke-width="1"/>

  <!-- Table header -->
  <rect x="60" y="258" width="1080" height="44" rx="8" fill="#0f1726" stroke="#1e2d4a" stroke-width="1"/>
  <rect x="60" y="286" width="1080" height="16" fill="#0f1726"/>
  <text x="84" y="285" fill="#475569" font-size="11" font-weight="700">MODULE</text>
  <text x="520" y="285" fill="#475569" font-size="11" font-weight="700">STATEMENTS</text>
  <text x="660" y="285" fill="#475569" font-size="11" font-weight="700">MISSING</text>
  <text x="780" y="285" fill="#475569" font-size="11" font-weight="700">COVERAGE</text>
  <text x="980" y="285" fill="#475569" font-size="11" font-weight="700">TREND</text>

  <!-- Row 1 - prompt.py -->
  <rect x="60" y="302" width="1080" height="50" fill="#141c2e"/>
  <rect x="60" y="351" width="1080" height="1" fill="#1e2d4a"/>
  <text x="84" y="332" fill="#60a5fa" font-size="12">core/prompt.py</text>
  <text x="540" y="332" fill="#94a3b8" font-size="12" text-anchor="middle">28 / 28</text>
  <text x="678" y="332" fill="#22c55e" font-size="12" text-anchor="middle">0</text>
  <rect x="780" y="320" width="160" height="14" rx="7" fill="#1e2d4a"/>
  <rect x="780" y="320" width="160" height="14" rx="7" fill="url(#barGreen)"/>
  <text x="950" y="332" fill="#22c55e" font-size="12">100%</text>
  <text x="1000" y="332" fill="#22c55e" font-size="11">+0%</text>

  <!-- Row 2 - parser.py -->
  <rect x="60" y="352" width="1080" height="50" fill="#141c2e"/>
  <rect x="60" y="401" width="1080" height="1" fill="#1e2d4a"/>
  <text x="84" y="382" fill="#60a5fa" font-size="12">core/parser.py</text>
  <text x="540" y="382" fill="#94a3b8" font-size="12" text-anchor="middle">31 / 33</text>
  <text x="678" y="382" fill="#f59e0b" font-size="12" text-anchor="middle">2</text>
  <rect x="780" y="370" width="160" height="14" rx="7" fill="#1e2d4a"/>
  <rect x="780" y="370" width="154" height="14" rx="7" fill="url(#barGreen)"/>
  <text x="950" y="382" fill="#22c55e" font-size="12">94%</text>
  <text x="1000" y="382" fill="#22c55e" font-size="11">+2%</text>

  <!-- Row 3 - generator.py -->
  <rect x="60" y="402" width="1080" height="50" fill="#141c2e"/>
  <rect x="60" y="451" width="1080" height="1" fill="#1e2d4a"/>
  <text x="84" y="432" fill="#60a5fa" font-size="12">core/generator.py</text>
  <text x="540" y="432" fill="#94a3b8" font-size="12" text-anchor="middle">20 / 24</text>
  <text x="678" y="432" fill="#f59e0b" font-size="12" text-anchor="middle">4</text>
  <rect x="780" y="420" width="160" height="14" rx="7" fill="#1e2d4a"/>
  <rect x="780" y="420" width="134" height="14" rx="7" fill="url(#barBlue)"/>
  <text x="950" y="432" fill="#60a5fa" font-size="12">83%</text>
  <text x="1000" y="432" fill="#f59e0b" font-size="11">-1%</text>

  <!-- Row 4 - coverage.py -->
  <rect x="60" y="452" width="1080" height="50" fill="#141c2e"/>
  <rect x="60" y="501" width="1080" height="1" fill="#1e2d4a"/>
  <text x="84" y="482" fill="#60a5fa" font-size="12">core/coverage.py</text>
  <text x="540" y="482" fill="#94a3b8" font-size="12" text-anchor="middle">8 / 8</text>
  <text x="678" y="482" fill="#22c55e" font-size="12" text-anchor="middle">0</text>
  <rect x="780" y="470" width="160" height="14" rx="7" fill="#1e2d4a"/>
  <rect x="780" y="470" width="160" height="14" rx="7" fill="url(#barGreen)"/>
  <text x="950" y="482" fill="#22c55e" font-size="12">100%</text>
  <text x="1000" y="482" fill="#22c55e" font-size="11">new</text>

  <!-- Row 5 - TOTAL -->
  <rect x="60" y="502" width="1080" height="50" rx="8" fill="#0d1117"/>
  <text x="84" y="532" fill="#94a3b8" font-size="12" font-weight="700">TOTAL</text>
  <text x="540" y="532" fill="#94a3b8" font-size="12" text-anchor="middle">87 / 93</text>
  <text x="678" y="532" fill="#f59e0b" font-size="12" text-anchor="middle">6</text>
  <rect x="780" y="520" width="160" height="14" rx="7" fill="#1e2d4a"/>
  <rect x="780" y="520" width="151" height="14" rx="7" fill="url(#barGreen)"/>
  <text x="950" y="532" fill="#22c55e" font-size="14" font-weight="700">94%</text>

  <!-- Missing lines callout -->
  <rect x="60" y="650" width="520" height="52" rx="8" fill="#1a1400" stroke="#854f0b" stroke-width="1"/>
  <text x="84" y="672" fill="#fbbf24" font-size="11" font-weight="700">Missing lines</text>
  <text x="84" y="690" fill="#78716c" font-size="11">core/generator.py: lines 61-64 (real API error branch)  |  core/parser.py: lines 47-48 (regex edge case)</text>

  <!-- Export button -->
  <rect x="1040" y="658" width="100" height="36" rx="6" fill="#141c2e" stroke="#1e2d4a" stroke-width="1"/>
  <text x="1090" y="681" fill="#60a5fa" font-size="12" text-anchor="middle">Export HTML</text>

  <!-- Bottom bar -->
  <rect x="0" y="700" width="1200" height="20" fill="#0d1117" opacity="0.8"/>
  <text x="24" y="714" fill="#374151" font-size="9">TestForge Cloud  |  Coverage via pytest-cov  |  by omnia</text>
  <circle cx="1150" cy="710" r="3" fill="#22c55e"/>
  <text x="1158" y="714" fill="#22c55e" font-size="9">94% covered</text>
</svg>
