<svg viewBox="0 0 1200 720" xmlns="http://www.w3.org/2000/svg" font-family="'Courier New', monospace">
  <defs>
    <linearGradient id="bg" x1="0" y1="0" x2="1" y2="1">
      <stop offset="0%" stop-color="#0a0e1a"/>
      <stop offset="100%" stop-color="#0d1528"/>
    </linearGradient>
    <linearGradient id="cardGrad" x1="0" y1="0" x2="0" y2="1">
      <stop offset="0%" stop-color="#141c2e"/>
      <stop offset="100%" stop-color="#0f1726"/>
    </linearGradient>
    <linearGradient id="btnGrad" x1="0" y1="0" x2="1" y2="0">
      <stop offset="0%" stop-color="#3b82f6"/>
      <stop offset="100%" stop-color="#6366f1"/>
    </linearGradient>
    <linearGradient id="accentLine" x1="0" y1="0" x2="1" y2="0">
      <stop offset="0%" stop-color="#3b82f6"/>
      <stop offset="100%" stop-color="#a78bfa"/>
    </linearGradient>
    <linearGradient id="fadeOut" x1="0" y1="0" x2="0" y2="1">
      <stop offset="0%" stop-color="#141c2e" stop-opacity="0"/>
      <stop offset="100%" stop-color="#141c2e" stop-opacity="1"/>
    </linearGradient>
    <pattern id="dots" x="0" y="0" width="24" height="24" patternUnits="userSpaceOnUse">
      <circle cx="12" cy="12" r="1" fill="#fff"/>
    </pattern>
  </defs>

  <rect width="1200" height="720" fill="url(#bg)"/>
  <rect width="1200" height="720" fill="url(#dots)" opacity="0.06"/>

  <!-- Accent line top -->
  <rect x="0" y="0" width="1200" height="3" fill="url(#accentLine)"/>

  <!-- Nav -->
  <rect x="0" y="3" width="1200" height="52" fill="#0d1528" opacity="0.95"/>
  <rect x="0" y="54" width="1200" height="1" fill="#1e2d4a"/>
  <rect x="24" y="17" width="8" height="24" rx="2" fill="#3b82f6"/>
  <rect x="36" y="17" width="8" height="24" rx="2" fill="#6366f1"/>
  <rect x="30" y="23" width="20" height="4" rx="2" fill="#a78bfa"/>
  <text x="58" y="36" fill="#e2e8f0" font-size="15" font-weight="700" letter-spacing="1">TESTFORGE</text>
  <text x="148" y="36" fill="#3b82f6" font-size="11">CLOUD</text>
  <rect x="200" y="21" width="100" height="18" rx="9" fill="#0d2d1a"/>
  <circle cx="215" cy="30" r="4" fill="#22c55e"/>
  <text x="225" y="34" fill="#22c55e" font-size="10">Live on Azure</text>
  <text x="900" y="35" fill="#64748b" font-size="12">Docs</text>
  <text x="960" y="35" fill="#64748b" font-size="12">GitHub</text>
  <rect x="1020" y="17" width="80" height="26" rx="4" fill="url(#btnGrad)" opacity="0.9"/>
  <text x="1060" y="34" fill="#fff" font-size="11" font-weight="600" text-anchor="middle">Deploy</text>

  <!-- Left Panel -->
  <rect x="24" y="75" width="560" height="580" rx="8" fill="url(#cardGrad)" stroke="#1e2d4a" stroke-width="1"/>
  <rect x="24" y="75" width="560" height="44" rx="8" fill="#111827" stroke="#1e2d4a" stroke-width="1"/>
  <rect x="24" y="103" width="560" height="16" fill="#111827"/>
  <circle cx="48" cy="97" r="5" fill="#ef4444" opacity="0.8"/>
  <circle cx="66" cy="97" r="5" fill="#f59e0b" opacity="0.8"/>
  <circle cx="84" cy="97" r="5" fill="#22c55e" opacity="0.8"/>
  <text x="304" y="101" fill="#475569" font-size="11" text-anchor="middle">input.py — Python Source</text>
  <rect x="24" y="119" width="40" height="500" fill="#0d1117"/>

  <text x="40" y="143" fill="#374151" font-size="10" text-anchor="end">1</text>
  <text x="72" y="143" fill="#7c3aed" font-size="11">def</text>
  <text x="96" y="143" fill="#60a5fa" font-size="11">calculate_discount</text>
  <text x="222" y="143" fill="#94a3b8" font-size="11">(price, rate):</text>
  <text x="40" y="161" fill="#374151" font-size="10" text-anchor="end">2</text>
  <text x="88" y="161" fill="#94a3b8" font-size="11" font-style="italic">"""Apply discount rate to price."""</text>
  <text x="40" y="179" fill="#374151" font-size="10" text-anchor="end">3</text>
  <text x="88" y="179" fill="#7c3aed" font-size="11">if</text>
  <text x="106" y="179" fill="#94a3b8" font-size="11">not</text>
  <text x="126" y="179" fill="#c4b5fd" font-size="11">0 </text>
  <text x="140" y="179" fill="#94a3b8" font-size="11">&lt;= rate &lt;=</text>
  <text x="212" y="179" fill="#c4b5fd" font-size="11">1</text>
  <text x="222" y="179" fill="#94a3b8" font-size="11">:</text>
  <text x="40" y="197" fill="#374151" font-size="10" text-anchor="end">4</text>
  <text x="104" y="197" fill="#7c3aed" font-size="11">raise</text>
  <text x="136" y="197" fill="#fbbf24" font-size="11">ValueError</text>
  <text x="200" y="197" fill="#94a3b8" font-size="11">(</text>
  <text x="208" y="197" fill="#86efac" font-size="11">"Rate must be 0-1"</text>
  <text x="316" y="197" fill="#94a3b8" font-size="11">)</text>
  <text x="40" y="215" fill="#374151" font-size="10" text-anchor="end">5</text>
  <text x="40" y="233" fill="#374151" font-size="10" text-anchor="end">6</text>
  <text x="88" y="233" fill="#7c3aed" font-size="11">if</text>
  <text x="106" y="233" fill="#94a3b8" font-size="11">price</text>
  <text x="136" y="233" fill="#94a3b8" font-size="11">&lt;</text>
  <text x="144" y="233" fill="#c4b5fd" font-size="11">0</text>
  <text x="152" y="233" fill="#94a3b8" font-size="11">:</text>
  <text x="40" y="251" fill="#374151" font-size="10" text-anchor="end">7</text>
  <text x="104" y="251" fill="#7c3aed" font-size="11">raise</text>
  <text x="136" y="251" fill="#fbbf24" font-size="11">ValueError</text>
  <text x="200" y="251" fill="#94a3b8" font-size="11">(</text>
  <text x="208" y="251" fill="#86efac" font-size="11">"Price cannot be negative"</text>
  <text x="376" y="251" fill="#94a3b8" font-size="11">)</text>
  <text x="40" y="269" fill="#374151" font-size="10" text-anchor="end">8</text>
  <text x="40" y="287" fill="#374151" font-size="10" text-anchor="end">9</text>
  <text x="88" y="287" fill="#7c3aed" font-size="11">return</text>
  <text x="126" y="287" fill="#94a3b8" font-size="11">round(price * (</text>
  <text x="236" y="287" fill="#c4b5fd" font-size="11">1</text>
  <text x="244" y="287" fill="#94a3b8" font-size="11">- rate),</text>
  <text x="296" y="287" fill="#c4b5fd" font-size="11">2</text>
  <text x="304" y="287" fill="#94a3b8" font-size="11">)</text>

  <!-- Options bar -->
  <rect x="36" y="543" width="536" height="56" rx="6" fill="#0d1117" stroke="#1e2d4a" stroke-width="1"/>
  <text x="52" y="565" fill="#64748b" font-size="11">Framework</text>
  <rect x="52" y="571" width="80" height="20" rx="4" fill="#1e2d4a"/>
  <text x="75" y="584" fill="#60a5fa" font-size="10" text-anchor="middle">pytest</text>
  <text x="155" y="565" fill="#64748b" font-size="11">Edge cases</text>
  <rect x="155" y="571" width="36" height="20" rx="10" fill="#3b82f6"/>
  <circle cx="181" cy="581" r="8" fill="white"/>
  <text x="220" y="565" fill="#64748b" font-size="11">Max tokens</text>
  <rect x="220" y="571" width="60" height="20" rx="4" fill="#1e2d4a"/>
  <text x="250" y="584" fill="#94a3b8" font-size="10" text-anchor="middle">2000</text>

  <!-- Generate button -->
  <rect x="36" y="611" width="536" height="36" rx="6" fill="url(#btnGrad)"/>
  <text x="304" y="634" fill="white" font-size="13" font-weight="700" text-anchor="middle" letter-spacing="1">GENERATE TESTS</text>

  <!-- Right Panel -->
  <rect x="608" y="75" width="568" height="580" rx="8" fill="url(#cardGrad)" stroke="#1e2d4a" stroke-width="1"/>
  <rect x="608" y="75" width="568" height="44" rx="8" fill="#111827" stroke="#1e2d4a" stroke-width="1"/>
  <rect x="608" y="103" width="568" height="16" fill="#111827"/>
  <rect x="624" y="83" width="110" height="26" rx="4" fill="#1e2d4a"/>
  <text x="679" y="100" fill="#60a5fa" font-size="11" text-anchor="middle">test_output.py</text>
  <text x="760" y="100" fill="#374151" font-size="11">Coverage</text>
  <rect x="1050" y="83" width="72" height="26" rx="4" fill="#0d2d1a"/>
  <circle cx="1064" cy="96" r="4" fill="#22c55e"/>
  <text x="1072" y="100" fill="#22c55e" font-size="10">Valid</text>
  <rect x="1130" y="83" width="34" height="26" rx="4" fill="#1e2d4a" stroke="#2d3f5e" stroke-width="1"/>
  <text x="1147" y="100" fill="#60a5fa" font-size="10" text-anchor="middle">copy</text>
  <rect x="608" y="119" width="40" height="500" fill="#0d1117"/>

  <text x="624" y="143" fill="#374151" font-size="10" text-anchor="end">1</text>
  <text x="656" y="143" fill="#94a3b8" font-size="11" font-style="italic">"""TestForge generated — calculate_discount"""</text>
  <text x="624" y="161" fill="#374151" font-size="10" text-anchor="end">2</text>
  <text x="624" y="179" fill="#374151" font-size="10" text-anchor="end">3</text>
  <text x="656" y="179" fill="#7c3aed" font-size="11">import</text>
  <text x="694" y="179" fill="#94a3b8" font-size="11">pytest</text>
  <text x="624" y="197" fill="#374151" font-size="10" text-anchor="end">4</text>
  <text x="656" y="197" fill="#7c3aed" font-size="11">from</text>
  <text x="682" y="197" fill="#94a3b8" font-size="11">solution</text>
  <text x="728" y="197" fill="#7c3aed" font-size="11">import</text>
  <text x="774" y="197" fill="#fbbf24" font-size="11">calculate_discount</text>
  <text x="624" y="221" fill="#374151" font-size="10" text-anchor="end">6</text>
  <text x="656" y="221" fill="#7c3aed" font-size="11">def</text>
  <text x="680" y="221" fill="#86efac" font-size="11">test_basic_discount</text>
  <text x="796" y="221" fill="#94a3b8" font-size="11">():</text>
  <text x="624" y="239" fill="#374151" font-size="10" text-anchor="end">7</text>
  <text x="672" y="239" fill="#94a3b8" font-size="11" font-style="italic">"""50% off $100 should return $50.00"""</text>
  <text x="624" y="257" fill="#374151" font-size="10" text-anchor="end">8</text>
  <text x="672" y="257" fill="#94a3b8" font-size="11">assert</text>
  <text x="714" y="257" fill="#fbbf24" font-size="11">calculate_discount</text>
  <text x="826" y="257" fill="#94a3b8" font-size="11">(100, 0.5) ==</text>
  <text x="906" y="257" fill="#c4b5fd" font-size="11">50.0</text>
  <text x="624" y="281" fill="#374151" font-size="10" text-anchor="end">11</text>
  <text x="656" y="281" fill="#94a3b8" font-size="11">@pytest.mark.</text>
  <text x="748" y="281" fill="#fbbf24" font-size="11">parametrize</text>
  <text x="818" y="281" fill="#94a3b8" font-size="11">(</text>
  <text x="822" y="281" fill="#86efac" font-size="11">"price,rate,exp"</text>
  <text x="928" y="281" fill="#94a3b8" font-size="11">, [</text>
  <text x="624" y="299" fill="#374151" font-size="10" text-anchor="end">12</text>
  <text x="672" y="299" fill="#94a3b8" font-size="11">(100, 0.1, 90.0), (0, 0.5, 0.0), (200, 1.0, 0.0)])</text>
  <text x="624" y="317" fill="#374151" font-size="10" text-anchor="end">13</text>
  <text x="656" y="317" fill="#7c3aed" font-size="11">def</text>
  <text x="680" y="317" fill="#86efac" font-size="11">test_discount_parametrized</text>
  <text x="846" y="317" fill="#94a3b8" font-size="11">(price, rate, exp):</text>
  <text x="624" y="335" fill="#374151" font-size="10" text-anchor="end">14</text>
  <text x="672" y="335" fill="#94a3b8" font-size="11">assert</text>
  <text x="714" y="335" fill="#fbbf24" font-size="11">calculate_discount</text>
  <text x="826" y="335" fill="#94a3b8" font-size="11">(price, rate) == exp</text>
  <text x="624" y="359" fill="#374151" font-size="10" text-anchor="end">17</text>
  <text x="656" y="359" fill="#7c3aed" font-size="11" opacity="0.7">def</text>
  <text x="680" y="359" fill="#86efac" font-size="11" opacity="0.7">test_invalid_rate_raises</text>
  <text x="818" y="359" fill="#94a3b8" font-size="11" opacity="0.7">():</text>
  <text x="624" y="377" fill="#374151" font-size="10" text-anchor="end">18</text>
  <text x="672" y="377" fill="#94a3b8" font-size="11" opacity="0.7">with pytest.raises(ValueError):</text>
  <text x="624" y="395" fill="#374151" font-size="10" text-anchor="end">19</text>
  <text x="688" y="395" fill="#fbbf24" font-size="11" opacity="0.5">calculate_discount</text>
  <text x="800" y="395" fill="#94a3b8" font-size="11" opacity="0.5">(100, 1.5)</text>

  <rect x="608" y="383" width="568" height="220" fill="url(#fadeOut)"/>

  <!-- Stats bar -->
  <rect x="620" y="575" width="544" height="52" rx="6" fill="#0d1117" stroke="#1e2d4a" stroke-width="1"/>
  <text x="648" y="597" fill="#64748b" font-size="10">TESTS</text>
  <text x="648" y="615" fill="#60a5fa" font-size="18" font-weight="700">8</text>
  <line x1="720" y1="581" x2="720" y2="621" stroke="#1e2d4a" stroke-width="1"/>
  <text x="740" y="597" fill="#64748b" font-size="10">PARAM CASES</text>
  <text x="740" y="615" fill="#a78bfa" font-size="18" font-weight="700">12</text>
  <line x1="820" y1="581" x2="820" y2="621" stroke="#1e2d4a" stroke-width="1"/>
  <text x="840" y="597" fill="#64748b" font-size="10">TOKENS</text>
  <text x="840" y="615" fill="#34d399" font-size="18" font-weight="700">487</text>
  <line x1="920" y1="581" x2="920" y2="621" stroke="#1e2d4a" stroke-width="1"/>
  <text x="940" y="597" fill="#64748b" font-size="10">MODEL</text>
  <text x="940" y="615" fill="#f472b6" font-size="14" font-weight="700">gpt-4o</text>
  <rect x="1060" y="587" width="92" height="32" rx="6" fill="url(#btnGrad)"/>
  <text x="1106" y="607" fill="white" font-size="11" font-weight="600" text-anchor="middle">Download</text>

  <!-- Bottom bar -->
  <rect x="0" y="700" width="1200" height="20" fill="#0d1117" opacity="0.8"/>
  <text x="24" y="714" fill="#374151" font-size="9">TestForge Cloud  |  Azure Functions  |  Python 3.10  |  GPT-4o  |  by omnia</text>
  <circle cx="1150" cy="710" r="3" fill="#22c55e"/>
  <text x="1158" y="714" fill="#22c55e" font-size="9">Connected</text>
</svg>
